<svg xmlns="http://www.w3.org/2000/svg" xmlns:xlink="http://www.w3.org/1999/xlink" width="500" zoomAndPan="magnify" viewBox="0 0 375 112.499997" height="150" preserveAspectRatio="xMidYMid meet" version="1.0"><defs><g/></defs><g fill="#ffa7e4" fill-opacity="1"><g transform="translate(4.183809, 99.883811)"><g><path d="M 19.738281 -42.171875 L 5.542969 -42.171875 C 3.324219 -42.171875 1.742188 -40.324219 1.742188 -38.371094 L 1.742188 -4.011719 C 1.742188 -2.109375 3.324219 -0.160156 5.542969 -0.160156 L 19.738281 -0.160156 C 28.027344 -0.160156 34.359375 -6.863281 34.359375 -14.832031 L 34.359375 -27.550781 C 34.359375 -35.519531 28.027344 -42.171875 19.738281 -42.171875 Z M 21.480469 -19.898438 C 21.480469 -17.679688 19.84375 -16.152344 17.679688 -16.152344 L 15.148438 -16.152344 C 14.777344 -16.152344 14.410156 -16.414062 14.410156 -17.046875 L 14.410156 -25.28125 C 14.410156 -25.96875 14.777344 -26.285156 15.148438 -26.285156 L 17.679688 -26.285156 C 19.84375 -26.285156 21.480469 -24.699219 21.480469 -22.429688 Z M 21.480469 -19.898438 "/></g></g></g><g fill="#ffa7e4" fill-opacity="1"><g transform="translate(39.855141, 99.883811)"><g><path d="M 16.46875 -30.769531 L 27.179688 -30.769531 C 28.710938 -30.769531 29.980469 -32.039062 29.980469 -33.515625 L 29.980469 -39.425781 C 29.980469 -40.957031 28.710938 -42.171875 27.179688 -42.171875 L 5.59375 -42.171875 C 3.429688 -42.171875 1.742188 -40.480469 1.742188 -39.269531 L 1.742188 -4.910156 C 1.742188 -1.792969 3.429688 -0.105469 5.59375 -0.105469 L 27.179688 -0.105469 C 28.710938 -0.105469 29.980469 -1.320312 29.980469 -2.851562 L 29.980469 -8.761719 C 29.980469 -10.292969 28.710938 -11.613281 27.179688 -11.613281 L 16.46875 -11.613281 C 16.257812 -11.613281 16.097656 -11.769531 16.097656 -11.980469 L 16.097656 -15.359375 C 16.097656 -15.570312 16.257812 -15.726562 16.46875 -15.726562 L 24.226562 -15.726562 C 25.597656 -15.726562 26.757812 -16.835938 26.757812 -18.261719 L 26.757812 -24.015625 C 26.757812 -25.386719 25.597656 -26.546875 24.226562 -26.546875 L 16.46875 -26.546875 C 16.257812 -26.546875 16.097656 -26.707031 16.097656 -26.863281 L 16.097656 -30.347656 C 16.097656 -30.507812 16.257812 -30.769531 16.46875 -30.769531 Z M 16.46875 -30.769531 "/></g></g></g><g fill="#ffa7e4" fill-opacity="1"><g transform="translate(71.568854, 99.883811)"><g/></g></g><g fill="#ffa7e4" fill-opacity="1"><g transform="translate(89.510052, 99.883811)"><g><path d="M 18.472656 -44.125 C 17.839844 -44.125 0.898438 -45.019531 0.898438 -30.347656 C 0.898438 -21.164062 7.546875 -15.886719 16.46875 -15.886719 L 19.632812 -15.886719 C 21.375 -15.886719 22.800781 -14.832031 22.800781 -13.089844 C 22.800781 -11.402344 21.375 -10.1875 19.898438 -10.1875 C 19.054688 -10.1875 17.628906 -10.449219 17.101562 -12.5625 C 16.941406 -12.984375 16.730469 -13.246094 15.9375 -13.089844 L 1.792969 -11.402344 C 1.003906 -11.242188 0.84375 -10.714844 1.265625 -9.921875 C 3.429688 -3.90625 7.285156 1.898438 20.476562 1.898438 C 27.128906 1.898438 35.519531 -1.742188 35.519531 -13.351562 C 35.519531 -27.65625 22.90625 -26.601562 18.472656 -26.601562 C 17.101562 -26.601562 14.460938 -26.917969 14.460938 -29.449219 C 14.460938 -31.507812 16.203125 -32.40625 17.363281 -32.40625 C 18.207031 -32.40625 19.632812 -31.773438 20.160156 -30.347656 C 20.371094 -29.714844 20.847656 -29.449219 21.375 -29.449219 L 34.308594 -31.246094 C 34.886719 -31.296875 35.308594 -31.878906 35.152344 -32.671875 C 34.570312 -35.519531 32.039062 -44.125 18.472656 -44.125 Z M 18.472656 -44.125 "/></g></g></g><g fill="#ffa7e4" fill-opacity="1"><g transform="translate(125.920146, 99.883811)"><g><path d="M 40.269531 -4.433594 L 31.296875 -38.582031 C 31.140625 -39.214844 30.980469 -40.164062 30.242188 -41.007812 C 29.449219 -41.800781 28.449219 -42.011719 27.710938 -42.011719 L 13.882812 -42.011719 C 13.089844 -42.011719 12.351562 -41.75 11.824219 -41.328125 C 11.292969 -40.957031 10.714844 -40.324219 10.503906 -39.375 L 1.003906 -4.484375 C 0.582031 -2.796875 1.371094 -1.003906 2.957031 -0.316406 C 3.378906 -0.105469 3.800781 -0.0546875 4.328125 -0.0546875 L 11.507812 -0.0546875 C 13.457031 -0.0546875 14.25 -1.265625 15.042969 -3.273438 L 16.574219 -7.390625 L 24.648438 -7.390625 L 26.230469 -3.273438 C 27.023438 -1.265625 27.816406 0 29.769531 0 L 36.945312 0 C 37.527344 0 38.105469 -0.160156 38.527344 -0.421875 C 39.953125 -1.160156 40.640625 -2.851562 40.269531 -4.433594 Z M 23.117188 -19.582031 L 18.207031 -19.582031 C 17.679688 -19.582031 17.257812 -20.054688 17.523438 -20.585938 L 18.894531 -24.171875 L 19.949219 -26.917969 C 20.160156 -27.605469 21.113281 -27.605469 21.324219 -26.917969 L 22.429688 -24.171875 L 23.804688 -20.585938 C 23.960938 -20.054688 23.59375 -19.582031 23.117188 -19.582031 Z M 23.117188 -19.582031 "/></g></g></g><g fill="#ffa7e4" fill-opacity="1"><g transform="translate(167.184909, 99.883811)"><g><path d="M 26.179688 -14.25 L 15.886719 -14.25 L 15.886719 -37.949219 C 15.886719 -40.21875 13.882812 -42.222656 11.71875 -42.222656 L 5.59375 -42.222656 C 3.324219 -42.222656 1.742188 -40.21875 1.742188 -37.949219 L 1.742188 -3.484375 C 1.742188 -1.582031 2.957031 0 5.226562 0 L 26.179688 0 C 28.132812 0 29.714844 -1.582031 29.714844 -3.484375 L 29.714844 -10.554688 C 29.714844 -12.507812 28.132812 -14.25 26.179688 -14.25 Z M 26.179688 -14.25 "/></g></g></g><g fill="#ffa7e4" fill-opacity="1"><g transform="translate(198.634779, 99.883811)"><g><path d="M 18.101562 -42.855469 C 9.449219 -42.855469 0.898438 -35.890625 0.898438 -27.179688 L 0.898438 -15.148438 C 0.898438 -6.121094 9.449219 0.898438 18.101562 0.898438 C 26.96875 0.898438 35.308594 -6.121094 35.308594 -15.148438 L 35.308594 -27.179688 C 35.308594 -35.890625 26.96875 -42.855469 18.101562 -42.855469 Z M 21.640625 -15.675781 C 21.640625 -13.882812 20.003906 -12.296875 18.101562 -12.296875 C 16.152344 -12.296875 14.621094 -13.882812 14.621094 -15.675781 L 14.621094 -26.230469 C 14.621094 -28.132812 16.152344 -29.714844 18.101562 -29.714844 C 20.003906 -29.714844 21.640625 -28.132812 21.640625 -26.230469 Z M 21.640625 -15.675781 "/></g></g></g><g fill="#ffa7e4" fill-opacity="1"><g transform="translate(234.833808, 99.883811)"><g><path d="M 53.992188 -3.640625 C 53.992188 -4.011719 53.992188 -3.800781 48.980469 -38 C 48.558594 -40.269531 46.605469 -42.011719 44.230469 -42.066406 L 35.097656 -42.066406 C 32.777344 -42.066406 30.824219 -40.429688 30.453125 -38.210938 L 28.34375 -25.703125 C 28.289062 -25.230469 27.921875 -24.910156 27.445312 -24.910156 C 26.917969 -24.910156 26.496094 -25.386719 26.496094 -25.863281 L 26.496094 -25.808594 L 25.070312 -37.894531 C 24.753906 -40.21875 22.746094 -42.011719 20.320312 -42.066406 L 11.1875 -42.066406 C 8.867188 -42.066406 6.96875 -40.429688 6.542969 -38.210938 L 3.957031 -22.429688 L 1.636719 -8.601562 L 0.949219 -4.273438 C 0.898438 -4.011719 0.898438 -3.800781 0.898438 -3.640625 C 0.898438 -1.636719 2.535156 0 4.484375 0 L 11.558594 0 C 13.300781 -0.0546875 14.726562 -1.320312 14.988281 -3.007812 L 17.628906 -17.890625 L 17.890625 -19.421875 L 20.160156 -3.21875 C 20.320312 -1.425781 21.851562 0 23.699219 0 L 31.296875 0 C 33.144531 0 34.675781 -1.425781 34.886719 -3.21875 L 36.945312 -18.367188 L 37.050781 -18.894531 L 37.316406 -17.890625 L 39.847656 -3.007812 C 40.164062 -1.320312 41.589844 -0.0546875 43.332031 0 L 50.351562 0 C 52.410156 0 53.992188 -1.636719 53.992188 -3.640625 Z M 53.992188 -3.640625 "/></g></g></g><g fill="#ffa7e4" fill-opacity="1"><g transform="translate(289.712799, 99.883811)"><g><path d="M 32.460938 -58.425781 C 32.460938 -58.742188 32.089844 -59.113281 31.613281 -59.113281 L 25.757812 -59.113281 C 25.335938 -59.113281 25.015625 -58.742188 25.015625 -58.425781 C 24.964844 -57.214844 24.015625 -56.261719 22.90625 -56.261719 C 21.746094 -56.261719 21.375 -56.738281 19.582031 -57.742188 C 18.578125 -58.375 18.050781 -58.636719 16.785156 -58.636719 C 12.929688 -58.636719 9.816406 -55.523438 9.816406 -51.722656 L 9.816406 -47.132812 C 9.816406 -46.710938 10.1875 -46.445312 10.660156 -46.445312 L 16.097656 -46.445312 C 16.363281 -46.445312 16.574219 -46.550781 16.730469 -46.710938 C 16.941406 -46.972656 16.890625 -47.183594 16.941406 -47.5 C 17.046875 -48.03125 17.363281 -48.609375 17.890625 -48.925781 C 18.15625 -49.085938 18.421875 -49.191406 18.894531 -49.242188 C 20.160156 -49.296875 20.847656 -48.609375 22.324219 -47.765625 C 23.328125 -47.183594 24.171875 -46.921875 25.441406 -46.921875 C 29.238281 -46.921875 32.460938 -49.980469 32.460938 -53.835938 Z M 40.269531 -4.433594 L 31.296875 -38.582031 C 31.140625 -39.214844 30.980469 -40.164062 30.242188 -41.007812 C 29.449219 -41.800781 28.449219 -42.011719 27.710938 -42.011719 L 13.882812 -42.011719 C 13.089844 -42.011719 12.351562 -41.75 11.824219 -41.328125 C 11.292969 -40.957031 10.714844 -40.324219 10.503906 -39.375 L 1.003906 -4.484375 C 0.582031 -2.796875 1.371094 -1.003906 2.957031 -0.316406 C 3.378906 -0.105469 3.800781 -0.0546875 4.328125 -0.0546875 L 11.507812 -0.0546875 C 13.457031 -0.0546875 14.25 -1.265625 15.042969 -3.273438 L 16.574219 -7.390625 L 24.648438 -7.390625 L 26.230469 -3.273438 C 27.023438 -1.265625 27.816406 0 29.769531 0 L 36.945312 0 C 37.527344 0 38.105469 -0.160156 38.527344 -0.421875 C 39.953125 -1.160156 40.640625 -2.851562 40.269531 -4.433594 Z M 23.117188 -19.582031 L 18.207031 -19.582031 C 17.679688 -19.582031 17.257812 -20.054688 17.523438 -20.585938 L 18.894531 -24.171875 L 19.949219 -26.917969 C 20.160156 -27.605469 21.113281 -27.605469 21.324219 -26.917969 L 22.429688 -24.171875 L 23.804688 -20.585938 C 23.960938 -20.054688 23.59375 -19.582031 23.117188 -19.582031 Z M 23.117188 -19.582031 "/></g></g></g><g fill="#ffa7e4" fill-opacity="1"><g transform="translate(330.977563, 99.883811)"><g><path d="M 18.101562 -42.855469 C 9.449219 -42.855469 0.898438 -35.890625 0.898438 -27.179688 L 0.898438 -15.148438 C 0.898438 -6.121094 9.449219 0.898438 18.101562 0.898438 C 26.96875 0.898438 35.308594 -6.121094 35.308594 -15.148438 L 35.308594 -27.179688 C 35.308594 -35.890625 26.96875 -42.855469 18.101562 -42.855469 Z M 21.640625 -15.675781 C 21.640625 -13.882812 20.003906 -12.296875 18.101562 -12.296875 C 16.152344 -12.296875 14.621094 -13.882812 14.621094 -15.675781 L 14.621094 -26.230469 C 14.621094 -28.132812 16.152344 -29.714844 18.101562 -29.714844 C 20.003906 -29.714844 21.640625 -28.132812 21.640625 -26.230469 Z M 21.640625 -15.675781 "/></g></g></g><path stroke-linecap="butt" transform="matrix(0.79332, 0, 0, 0.79332, 0.829651, 57.312607)" fill="none" stroke-linejoin="miter" d="M 31.397946 -1.162181 L 13.499479 -1.162181 C 10.707613 -1.162181 8.708499 1.176683 8.708499 3.628798 L 8.708499 46.949492 C 8.708499 49.337595 10.707613 51.804482 13.499479 51.804482 L 31.397946 51.804482 C 41.841592 51.804482 49.81835 43.35995 49.81835 33.305295 L 49.81835 17.272995 C 49.81835 7.21834 41.841592 -1.162181 31.397946 -1.162181 Z M 33.594017 26.918964 C 33.594017 29.715754 31.530892 31.645932 28.798114 31.645932 L 25.617258 31.645932 C 25.144561 31.645932 24.676789 31.306181 24.676789 30.508506 L 24.676789 20.133795 C 24.676789 19.272108 25.144561 18.863423 25.617258 18.863423 L 28.798114 18.863423 C 31.530892 18.863423 33.594017 20.862536 33.594017 23.723337 Z M 72.236982 13.210757 L 85.738384 13.210757 C 87.668563 13.210757 89.278686 11.620329 89.278686 9.754161 L 89.278686 2.299338 C 89.278686 0.379008 87.668563 -1.162181 85.738384 -1.162181 L 58.528774 -1.162181 C 55.800919 -1.162181 53.673784 0.964955 53.673784 2.506143 L 53.673784 45.812065 C 53.673784 49.741357 55.800919 51.868493 58.528774 51.868493 L 85.738384 51.868493 C 87.668563 51.868493 89.278686 50.342076 89.278686 48.411897 L 89.278686 40.957075 C 89.278686 39.021972 87.668563 37.367533 85.738384 37.367533 L 72.236982 37.367533 C 71.980937 37.367533 71.769209 37.170576 71.769209 36.894836 L 71.769209 32.640565 C 71.769209 32.379597 71.980937 32.167868 72.236982 32.167868 L 82.015897 32.167868 C 83.754042 32.167868 85.216448 30.769474 85.216448 28.982089 L 85.216448 21.724223 C 85.216448 20.000849 83.754042 18.538444 82.015897 18.538444 L 72.236982 18.538444 C 71.980937 18.538444 71.769209 18.326715 71.769209 18.134682 L 71.769209 13.747464 C 71.769209 13.555431 71.980937 13.210757 72.236982 13.210757 Z M 137.365739 -3.614296 C 136.553292 -3.614296 115.208076 -4.751722 115.208076 13.747464 C 115.208076 25.328536 123.588597 31.970911 134.829918 31.970911 L 138.823221 31.970911 C 141.019292 31.970911 142.806677 33.305295 142.806677 35.496442 C 142.806677 37.623577 141.019292 39.149994 139.1482 39.149994 C 138.09448 39.149994 136.292324 38.825015 135.627594 36.161172 C 135.430637 35.629388 135.154897 35.304409 134.165188 35.496442 L 116.330731 37.623577 C 115.336098 37.835306 115.144065 38.500036 115.661077 39.494669 C 118.393856 47.077514 123.248846 54.389542 139.881865 54.389542 C 148.262386 54.389542 158.853749 49.805368 158.853749 35.171463 C 158.853749 17.144973 142.94947 18.474432 137.365739 18.474432 C 135.627594 18.474432 132.294096 18.070671 132.294096 14.870119 C 132.294096 12.285059 134.490167 11.147632 135.967345 11.147632 C 137.021065 11.147632 138.823221 11.945308 139.492875 13.747464 C 139.748919 14.54514 140.354562 14.870119 141.019292 14.870119 L 157.307636 12.610038 C 158.041301 12.546027 158.578009 11.817286 158.381052 10.822653 C 157.652311 7.21834 154.45176 -3.614296 137.365739 -3.614296 Z M 210.7273 46.412784 L 199.421968 3.36783 C 199.225011 2.575078 199.013282 1.37364 198.087584 0.300225 C 197.097875 -0.689484 195.832426 -0.950452 194.887033 -0.950452 L 177.461262 -0.950452 C 176.471553 -0.950452 175.526159 -0.625473 174.876201 -0.0887653 C 174.211471 0.379008 173.463034 1.176683 173.20699 2.363349 L 161.232004 46.348773 C 160.700221 48.475908 161.689929 50.731066 163.689043 51.592753 C 164.220827 51.868493 164.757535 51.937428 165.427189 51.937428 L 174.472439 51.937428 C 176.924554 51.937428 177.933959 50.406087 178.923667 47.875189 L 180.853846 42.69522 L 191.041447 42.69522 L 193.035637 47.875189 C 194.03027 50.406087 195.034751 52.001439 197.486865 52.001439 L 206.53704 52.001439 C 207.265781 52.001439 207.994521 51.804482 208.531229 51.464731 C 210.33831 50.539033 211.195073 48.411897 210.7273 46.412784 Z M 189.106345 27.312878 L 182.916971 27.312878 C 182.252241 27.312878 181.715533 26.726931 182.055284 26.062201 L 183.778658 21.527266 L 185.113041 18.070671 C 185.388781 17.208984 186.570523 17.208984 186.851187 18.070671 L 188.244658 21.527266 L 189.968032 26.062201 C 190.17976 26.726931 189.707064 27.312878 189.106345 27.312878 Z M 244.987971 34.034036 L 232.008504 34.034036 L 232.008504 4.165506 C 232.008504 1.304706 229.477607 -1.226192 226.744828 -1.226192 L 219.033962 -1.226192 C 216.173161 -1.226192 214.174048 1.304706 214.174048 4.165506 L 214.174048 47.614221 C 214.174048 50.002325 215.700464 52.001439 218.576037 52.001439 L 244.987971 52.001439 C 247.440086 52.001439 249.439199 50.002325 249.439199 47.614221 L 249.439199 38.696993 C 249.439199 36.230107 247.440086 34.034036 244.987971 34.034036 Z M 274.447815 -2.023868 C 263.531473 -2.023868 252.762849 6.765338 252.762849 17.745692 L 252.762849 32.896609 C 252.762849 44.285648 263.531473 53.138865 274.447815 53.138865 C 285.620201 53.138865 296.132781 44.285648 296.132781 32.896609 L 296.132781 17.745692 C 296.132781 6.765338 285.620201 -2.023868 274.447815 -2.023868 Z M 278.899043 32.231879 C 278.899043 34.506733 276.835919 36.505846 274.447815 36.505846 C 271.976005 36.505846 270.060598 34.506733 270.060598 32.231879 L 270.060598 18.932358 C 270.060598 16.544254 271.976005 14.54514 274.447815 14.54514 C 276.835919 14.54514 278.899043 16.544254 278.899043 18.932358 Z M 365.31393 47.402493 C 365.31393 46.949492 365.31393 47.21046 358.996534 4.101495 C 358.459826 1.240694 356.007711 -0.950452 352.999193 -1.034159 L 341.501828 -1.034159 C 338.577016 -1.034159 336.11013 1.028966 335.637433 3.840527 L 332.988361 19.597087 C 332.909578 20.197806 332.451653 20.601568 331.850934 20.601568 C 331.186205 20.601568 330.649497 20.000849 330.649497 19.40013 L 330.649497 19.464141 L 328.862112 4.229517 C 328.45835 1.304706 325.922529 -0.950452 322.869695 -1.034159 L 311.352634 -1.034159 C 308.432746 -1.034159 306.044643 1.028966 305.507935 3.840527 L 302.243373 23.723337 L 299.318561 41.149108 L 298.456874 46.609741 C 298.392863 46.949492 298.392863 47.21046 298.392863 47.402493 C 298.392863 49.938314 300.455988 52.001439 302.908102 52.001439 L 311.825331 52.001439 C 314.016478 51.937428 315.818634 50.342076 316.143613 48.21494 L 319.477111 29.440014 L 319.816861 27.524607 L 322.677662 47.9392 C 322.869695 50.199282 324.804798 52.001439 327.123966 52.001439 L 336.710849 52.001439 C 339.030017 52.001439 340.96512 50.199282 341.226088 47.9392 L 343.820996 28.854067 L 343.953942 28.189337 L 344.293693 29.440014 L 347.479473 48.21494 C 347.883235 50.342076 349.685391 51.937428 351.881462 52.001439 L 360.729755 52.001439 C 363.314816 52.001439 365.31393 49.938314 365.31393 47.402493 Z M 407.349479 -21.64571 C 407.349479 -22.049471 406.876782 -22.522168 406.276063 -22.522168 L 398.900023 -22.522168 C 398.363315 -22.522168 397.974325 -22.049471 397.974325 -21.64571 C 397.895542 -20.119293 396.708876 -18.917855 395.310482 -18.917855 C 393.848076 -18.917855 393.380303 -19.518574 391.120221 -20.784023 C 389.854773 -21.581699 389.190043 -21.921449 387.594691 -21.921449 C 382.739701 -21.921449 378.810408 -17.987233 378.810408 -13.196254 L 378.810408 -7.415566 C 378.810408 -6.878858 379.278181 -6.539107 379.864128 -6.539107 L 386.718232 -6.539107 C 387.057983 -6.539107 387.318951 -6.686825 387.515908 -6.878858 C 387.791648 -7.203837 387.727637 -7.479577 387.791648 -7.868567 C 387.91967 -8.538221 388.328356 -9.266962 388.993086 -9.675648 C 389.318065 -9.867681 389.657816 -10.000627 390.243763 -10.079409 C 391.853886 -10.14342 392.710649 -9.266962 394.581741 -8.213242 C 395.832418 -7.479577 396.900909 -7.139826 398.496261 -7.139826 C 403.28724 -7.139826 407.349479 -11.005107 407.349479 -15.860098 Z M 417.192405 46.412784 L 405.887073 3.36783 C 405.690116 2.575078 405.478387 1.37364 404.552689 0.300225 C 403.56298 -0.689484 402.297531 -0.950452 401.352138 -0.950452 L 383.926367 -0.950452 C 382.936658 -0.950452 381.991264 -0.625473 381.341306 -0.0887653 C 380.676576 0.379008 379.928139 1.176683 379.672095 2.363349 L 367.697109 46.348773 C 367.165325 48.475908 368.155034 50.731066 370.149224 51.592753 C 370.685932 51.868493 371.22264 51.937428 371.88737 51.937428 L 380.937544 51.937428 C 383.389659 51.937428 384.39414 50.406087 385.388772 47.875189 L 387.318951 42.69522 L 397.506552 42.69522 L 399.500742 47.875189 C 400.490451 50.406087 401.499855 52.001439 403.95197 52.001439 L 413.002145 52.001439 C 413.730886 52.001439 414.459626 51.804482 414.996334 51.464731 C 416.798491 50.539033 417.660178 48.411897 417.192405 46.412784 Z M 395.57145 27.312878 L 389.382076 27.312878 C 388.717346 27.312878 388.180638 26.726931 388.520389 26.062201 L 390.243763 21.527266 L 391.573222 18.070671 C 391.853886 17.208984 393.035628 17.208984 393.311368 18.070671 L 394.709763 21.527266 L 396.433137 26.062201 C 396.644865 26.726931 396.172168 27.312878 395.57145 27.312878 Z M 441.270399 -2.023868 C 430.354057 -2.023868 419.585433 6.765338 419.585433 17.745692 L 419.585433 32.896609 C 419.585433 44.285648 430.354057 53.138865 441.270399 53.138865 C 452.442785 53.138865 462.950441 44.285648 462.950441 32.896609 L 462.950441 17.745692 C 462.950441 6.765338 452.442785 -2.023868 441.270399 -2.023868 Z M 445.716703 32.231879 C 445.716703 34.506733 443.653579 36.505846 441.270399 36.505846 C 438.798588 36.505846 436.883182 34.506733 436.883182 32.231879 L 436.883182 18.932358 C 436.883182 16.544254 438.798588 14.54514 441.270399 14.54514 C 443.653579 14.54514 445.716703 16.544254 445.716703 18.932358 Z M 445.716703 32.231879 " stroke="#ff66c4" stroke-width="1.081164" stroke-opacity="1" stroke-miterlimit="4"/><g fill="#5ce1e6" fill-opacity="1"><g transform="translate(5.361394, 50.960623)"><g><path d="M 22.378906 -16.730469 C 21.902344 -16.730469 21.535156 -16.363281 21.535156 -15.886719 C 21.535156 -14.09375 19.898438 -12.507812 18.050781 -12.507812 C 16.097656 -12.507812 14.566406 -14.09375 14.566406 -15.886719 L 14.566406 -26.335938 C 14.566406 -28.871094 17.257812 -30.875 20.109375 -29.238281 C 20.902344 -28.765625 21.535156 -27.605469 21.535156 -26.652344 L 21.535156 -26.390625 C 21.535156 -25.96875 21.902344 -25.546875 22.378906 -25.546875 L 34.414062 -25.546875 C 34.78125 -25.546875 35.152344 -25.914062 35.152344 -26.335938 L 35.152344 -27.285156 C 35.152344 -35.941406 26.863281 -42.910156 18.050781 -42.910156 C 9.394531 -42.910156 0.898438 -35.941406 0.898438 -27.285156 L 0.898438 -15.359375 C 0.898438 -6.386719 9.394531 0.632812 18.050781 0.632812 C 26.863281 0.632812 35.152344 -6.386719 35.152344 -15.359375 L 35.152344 -15.992188 C 35.152344 -16.363281 34.78125 -16.730469 34.414062 -16.730469 Z M 22.378906 -16.730469 "/></g></g></g><g fill="#5ce1e6" fill-opacity="1"><g transform="translate(41.402101, 50.960623)"><g><path d="M 40.269531 -4.433594 L 31.296875 -38.582031 C 31.140625 -39.214844 30.980469 -40.164062 30.242188 -41.007812 C 29.449219 -41.800781 28.449219 -42.011719 27.710938 -42.011719 L 13.882812 -42.011719 C 13.089844 -42.011719 12.351562 -41.75 11.824219 -41.328125 C 11.292969 -40.957031 10.714844 -40.324219 10.503906 -39.375 L 1.003906 -4.484375 C 0.582031 -2.796875 1.371094 -1.003906 2.957031 -0.316406 C 3.378906 -0.105469 3.800781 -0.0546875 4.328125 -0.0546875 L 11.507812 -0.0546875 C 13.457031 -0.0546875 14.25 -1.265625 15.042969 -3.273438 L 16.574219 -7.390625 L 24.648438 -7.390625 L 26.230469 -3.273438 C 27.023438 -1.265625 27.816406 0 29.769531 0 L 36.945312 0 C 37.527344 0 38.105469 -0.160156 38.527344 -0.421875 C 39.953125 -1.160156 40.640625 -2.851562 40.269531 -4.433594 Z M 23.117188 -19.582031 L 18.207031 -19.582031 C 17.679688 -19.582031 17.257812 -20.054688 17.523438 -20.585938 L 18.894531 -24.171875 L 19.949219 -26.917969 C 20.160156 -27.605469 21.113281 -27.605469 21.324219 -26.917969 L 22.429688 -24.171875 L 23.804688 -20.585938 C 23.960938 -20.054688 23.59375 -19.582031 23.117188 -19.582031 Z M 23.117188 -19.582031 "/></g></g></g><g fill="#5ce1e6" fill-opacity="1"><g transform="translate(82.666864, 50.960623)"><g><path d="M 34.570312 -4.484375 L 31.296875 -17.3125 C 31.191406 -17.734375 31.085938 -18.050781 30.929688 -18.316406 C 33.25 -21.058594 34.730469 -24.4375 34.730469 -29.027344 C 34.730469 -37.105469 30.085938 -42.171875 24.332031 -42.171875 L 5.277344 -42.117188 C 3.21875 -42.117188 1.582031 -40.429688 1.582031 -37.421875 L 1.582031 -3.800781 C 1.582031 -1.847656 3.21875 -0.160156 5.277344 -0.160156 L 12.035156 -0.160156 C 13.089844 -0.160156 14.144531 -0.582031 14.832031 -1.425781 C 15.78125 -2.480469 15.726562 -3.0625 15.726562 -3.90625 L 15.726562 -12.71875 C 15.726562 -12.824219 15.78125 -13.035156 15.992188 -13.035156 C 16.203125 -13.035156 16.308594 -12.878906 16.308594 -12.773438 L 16.730469 -10.609375 L 18.101562 -4.167969 C 18.632812 -1.792969 20.953125 -0.160156 22.746094 -0.160156 L 31.296875 -0.160156 C 33.355469 -0.160156 35.097656 -2.003906 34.570312 -4.484375 Z M 20.53125 -27.65625 L 20.53125 -26.917969 C 20.53125 -25.230469 19.105469 -23.804688 17.417969 -23.804688 L 16.414062 -23.804688 C 15.992188 -23.804688 15.726562 -24.121094 15.726562 -24.488281 L 15.726562 -30.136719 C 15.726562 -30.507812 15.992188 -30.824219 16.414062 -30.824219 L 17.417969 -30.824219 C 19.105469 -30.824219 20.53125 -29.398438 20.53125 -27.65625 Z M 20.53125 -27.65625 "/></g></g></g><g fill="#5ce1e6" fill-opacity="1"><g transform="translate(119.129725, 50.960623)"><g><path d="M 35.363281 -42.222656 L 5.4375 -42.222656 C 3.429688 -42.222656 1.742188 -40.585938 1.742188 -38.527344 L 1.742188 -31.296875 C 1.742188 -29.292969 3.429688 -27.605469 5.4375 -27.605469 L 12.71875 -27.605469 C 12.929688 -27.605469 13.089844 -27.394531 13.089844 -27.234375 L 13.089844 -3.589844 C 13.089844 -1.582031 14.726562 0.105469 16.835938 0.105469 L 24.015625 0.105469 C 26.019531 0.105469 27.710938 -1.582031 27.710938 -3.589844 L 27.710938 -27.234375 C 27.710938 -27.394531 27.921875 -27.605469 28.132812 -27.605469 L 35.363281 -27.605469 C 37.367188 -27.605469 39.058594 -29.292969 39.058594 -31.296875 L 39.058594 -38.527344 C 39.058594 -40.585938 37.367188 -42.222656 35.363281 -42.222656 Z M 35.363281 -42.222656 "/></g></g></g><g fill="#5ce1e6" fill-opacity="1"><g transform="translate(159.91958, 50.960623)"><g><path d="M 5.488281 0.0546875 L 12.035156 0.0546875 C 14.25 0.0546875 15.832031 -1.742188 15.832031 -3.746094 L 15.832031 -38.421875 C 15.832031 -40.640625 14.25 -42.222656 12.035156 -42.222656 L 5.488281 -42.222656 C 3.429688 -42.222656 1.742188 -40.640625 1.742188 -38.421875 L 1.742188 -3.746094 C 1.742188 -1.742188 3.429688 0.0546875 5.488281 0.0546875 Z M 5.488281 0.0546875 "/></g></g></g><g fill="#5ce1e6" fill-opacity="1"><g transform="translate(177.491403, 50.960623)"><g><path d="M 26.179688 -14.25 L 15.886719 -14.25 L 15.886719 -37.949219 C 15.886719 -40.21875 13.882812 -42.222656 11.71875 -42.222656 L 5.59375 -42.222656 C 3.324219 -42.222656 1.742188 -40.21875 1.742188 -37.949219 L 1.742188 -3.484375 C 1.742188 -1.582031 2.957031 0 5.226562 0 L 26.179688 0 C 28.132812 0 29.714844 -1.582031 29.714844 -3.484375 L 29.714844 -10.554688 C 29.714844 -12.507812 28.132812 -14.25 26.179688 -14.25 Z M 26.179688 -14.25 "/></g></g></g><g fill="#5ce1e6" fill-opacity="1"><g transform="translate(208.941272, 50.960623)"><g><path d="M 31.507812 -42.382812 L 24.859375 -42.382812 C 22.695312 -42.382812 20.953125 -40.640625 20.953125 -38.476562 L 20.953125 -29.082031 C 20.953125 -28.765625 20.691406 -28.449219 20.425781 -28.394531 L 16.785156 -28.394531 C 16.519531 -28.449219 16.257812 -28.765625 16.203125 -29.027344 L 16.203125 -38.476562 C 16.203125 -40.640625 14.460938 -42.382812 12.296875 -42.382812 L 5.648438 -42.382812 C 3.484375 -42.382812 1.742188 -40.640625 1.742188 -38.476562 L 1.742188 -3.851562 C 1.742188 -1.636719 3.484375 0.105469 5.648438 0.105469 L 12.296875 0.105469 C 14.460938 0.105469 16.203125 -1.636719 16.203125 -3.851562 L 16.203125 -13.195312 C 16.257812 -13.5625 16.414062 -13.777344 16.785156 -13.882812 L 20.425781 -13.882812 C 20.691406 -13.777344 20.953125 -13.5625 20.953125 -13.195312 L 20.953125 -3.851562 C 20.953125 -1.636719 22.695312 0.105469 24.859375 0.105469 L 31.507812 0.105469 C 33.726562 0.105469 35.46875 -1.636719 35.46875 -3.851562 L 35.46875 -38.476562 C 35.46875 -40.640625 33.726562 -42.382812 31.507812 -42.382812 Z M 31.507812 -42.382812 "/></g></g></g><g fill="#5ce1e6" fill-opacity="1"><g transform="translate(246.142883, 50.960623)"><g><path d="M 40.269531 -4.433594 L 31.296875 -38.582031 C 31.140625 -39.214844 30.980469 -40.164062 30.242188 -41.007812 C 29.449219 -41.800781 28.449219 -42.011719 27.710938 -42.011719 L 13.882812 -42.011719 C 13.089844 -42.011719 12.351562 -41.75 11.824219 -41.328125 C 11.292969 -40.957031 10.714844 -40.324219 10.503906 -39.375 L 1.003906 -4.484375 C 0.582031 -2.796875 1.371094 -1.003906 2.957031 -0.316406 C 3.378906 -0.105469 3.800781 -0.0546875 4.328125 -0.0546875 L 11.507812 -0.0546875 C 13.457031 -0.0546875 14.25 -1.265625 15.042969 -3.273438 L 16.574219 -7.390625 L 24.648438 -7.390625 L 26.230469 -3.273438 C 27.023438 -1.265625 27.816406 0 29.769531 0 L 36.945312 0 C 37.527344 0 38.105469 -0.160156 38.527344 -0.421875 C 39.953125 -1.160156 40.640625 -2.851562 40.269531 -4.433594 Z M 23.117188 -19.582031 L 18.207031 -19.582031 C 17.679688 -19.582031 17.257812 -20.054688 17.523438 -20.585938 L 18.894531 -24.171875 L 19.949219 -26.917969 C 20.160156 -27.605469 21.113281 -27.605469 21.324219 -26.917969 L 22.429688 -24.171875 L 23.804688 -20.585938 C 23.960938 -20.054688 23.59375 -19.582031 23.117188 -19.582031 Z M 23.117188 -19.582031 "/></g></g></g><g fill="#5ce1e6" fill-opacity="1"><g transform="translate(287.407647, 50.960623)"><g><path d="M 5.542969 -32.039062 L 2.746094 -32.039062 C 1.6875 -32.039062 0.898438 -32.828125 0.898438 -33.777344 L 0.898438 -40.429688 C 0.898438 -41.378906 1.6875 -42.222656 2.746094 -42.222656 L 5.542969 -42.222656 C 6.542969 -42.222656 7.390625 -41.378906 7.390625 -40.429688 L 7.390625 -33.777344 C 7.390625 -32.828125 6.542969 -32.039062 5.542969 -32.039062 Z M 5.542969 -32.039062 "/></g></g></g><path stroke-linecap="butt" transform="matrix(0.79332, 0, 0, 0.79332, 0.829651, 8.389421)" fill="none" stroke-linejoin="miter" d="M 36.213545 30.918844 C 35.612826 30.918844 35.14013 31.371845 35.14013 31.972564 C 35.14013 34.232646 33.077005 36.226835 30.757836 36.226835 C 28.286026 36.226835 26.355847 34.232646 26.355847 31.972564 L 26.355847 18.801064 C 26.355847 15.600513 29.748431 13.084387 33.352745 15.147512 C 34.347378 15.748231 35.14013 17.210636 35.14013 18.412074 L 35.14013 18.737053 C 35.14013 19.268837 35.612826 19.805545 36.213545 19.805545 L 51.384159 19.805545 C 51.83716 19.805545 52.309856 19.337772 52.309856 18.801064 L 52.309856 17.599626 C 52.309856 6.698056 41.866211 -2.086226 30.757836 -2.086226 C 19.841494 -2.086226 9.136881 6.698056 9.136881 17.599626 L 9.136881 32.637294 C 9.136881 43.942626 19.841494 52.795843 30.757836 52.795843 C 41.866211 52.795843 52.309856 43.942626 52.309856 32.637294 L 52.309856 31.844542 C 52.309856 31.371845 51.83716 30.918844 51.384159 30.918844 Z M 104.188332 46.414436 L 92.883 3.369483 C 92.690967 2.571807 92.479238 1.370369 91.55354 0.301877 C 90.558907 -0.692755 89.293458 -0.9488 88.352988 -0.9488 L 70.922294 -0.9488 C 69.932585 -0.9488 68.992115 -0.623821 68.342157 -0.0920366 C 67.677427 0.38066 66.92899 1.178336 66.668022 2.360078 L 54.69796 46.345501 C 54.161252 48.477561 55.150961 50.732719 57.150075 51.594406 C 57.686783 51.870145 58.223491 51.934156 58.88822 51.934156 L 67.933471 51.934156 C 70.385586 51.934156 71.39499 50.40774 72.384699 47.871918 L 74.319802 42.691949 L 84.502479 42.691949 L 86.501593 47.871918 C 87.491302 50.40774 88.495782 51.998167 90.952821 51.998167 L 99.998071 51.998167 C 100.726812 51.998167 101.460477 51.806134 101.997185 51.466384 C 103.799342 50.535762 104.661029 48.408626 104.188332 46.414436 Z M 82.567376 27.309607 L 76.382926 27.309607 C 75.713273 27.309607 75.181489 26.728584 75.52124 26.05893 L 77.239689 21.528919 L 78.574073 18.067399 C 78.849813 17.210636 80.036479 17.210636 80.312219 18.067399 L 81.710613 21.528919 L 83.429063 26.05893 C 83.640792 26.728584 83.168095 27.309607 82.567376 27.309607 Z M 149.025594 46.345501 L 144.899345 30.185179 C 144.771323 29.648471 144.638377 29.244709 144.426648 28.91973 C 147.351459 25.458211 149.217627 21.20394 149.217627 15.403556 C 149.217627 5.23565 143.372928 -1.160528 136.110138 -1.160528 L 112.106003 -1.096517 C 109.506171 -1.096517 107.443046 1.030618 107.443046 4.831889 L 107.443046 47.207188 C 107.443046 49.678999 109.506171 51.806134 112.106003 51.806134 L 120.614546 51.806134 C 121.94893 51.806134 123.278389 51.269427 124.140076 50.196011 C 125.341514 48.866551 125.277503 48.132886 125.277503 47.079166 L 125.277503 35.970791 C 125.277503 35.837845 125.341514 35.562105 125.602482 35.562105 C 125.86345 35.562105 126.006244 35.773834 126.006244 35.901856 L 126.52818 38.634635 L 128.266326 46.739415 C 128.931056 49.74301 131.855867 51.806134 134.115949 51.806134 L 144.899345 51.806134 C 147.499177 51.806134 149.690324 49.46727 149.025594 46.345501 Z M 131.319159 17.141701 L 131.319159 18.067399 C 131.319159 20.194535 129.531774 22.001615 127.404639 22.001615 L 126.13919 22.001615 C 125.602482 22.001615 125.277503 21.59293 125.277503 21.120233 L 125.277503 14.010085 C 125.277503 13.55216 125.602482 13.148398 126.13919 13.148398 L 127.404639 13.148398 C 129.531774 13.148398 131.319159 14.950555 131.319159 17.141701 Z M 195.980144 -1.229463 L 158.262878 -1.229463 C 155.727056 -1.229463 153.59992 0.833661 153.59992 3.433494 L 153.59992 12.547679 C 153.59992 15.078577 155.727056 17.210636 158.262878 17.210636 L 167.441074 17.210636 C 167.716814 17.210636 167.908847 17.46668 167.908847 17.663637 L 167.908847 47.468156 C 167.908847 50.003978 169.971972 52.131113 172.635815 52.131113 L 181.685989 52.131113 C 184.202115 52.131113 186.329251 50.003978 186.329251 47.468156 L 186.329251 17.663637 C 186.329251 17.46668 186.604991 17.210636 186.865959 17.210636 L 195.980144 17.210636 C 198.511042 17.210636 200.638177 15.078577 200.638177 12.547679 L 200.638177 3.433494 C 200.638177 0.833661 198.511042 -1.229463 195.980144 -1.229463 Z M 209.742515 52.067102 L 217.995013 52.067102 C 220.786879 52.067102 222.785993 49.807021 222.785993 47.271199 L 222.785993 3.56644 C 222.785993 0.76965 220.786879 -1.229463 217.995013 -1.229463 L 209.742515 -1.229463 C 207.142682 -1.229463 205.015547 0.76965 205.015547 3.56644 L 205.015547 47.271199 C 205.015547 49.807021 207.142682 52.067102 209.742515 52.067102 Z M 257.977286 34.035689 L 245.002743 34.035689 L 245.002743 4.167159 C 245.002743 1.306358 242.466921 -1.229463 239.739067 -1.229463 L 232.023276 -1.229463 C 229.162476 -1.229463 227.168286 1.306358 227.168286 4.167159 L 227.168286 47.615874 C 227.168286 50.003978 228.694703 51.998167 231.570275 51.998167 L 257.977286 51.998167 C 260.434324 51.998167 262.428514 50.003978 262.428514 47.615874 L 262.428514 38.698646 C 262.428514 36.226835 260.434324 34.035689 257.977286 34.035689 Z M 304.331117 -1.421496 L 295.950596 -1.421496 C 293.222742 -1.421496 291.026671 0.76965 291.026671 3.497505 L 291.026671 15.339545 C 291.026671 15.748231 290.701692 16.137221 290.361941 16.201232 L 285.782691 16.201232 C 285.44294 16.137221 285.117961 15.748231 285.034254 15.403556 L 285.034254 3.497505 C 285.034254 0.76965 282.843108 -1.421496 280.115253 -1.421496 L 271.729808 -1.421496 C 269.001954 -1.421496 266.810807 0.76965 266.810807 3.497505 L 266.810807 47.143177 C 266.810807 49.935043 269.001954 52.131113 271.729808 52.131113 L 280.115253 52.131113 C 282.843108 52.131113 285.034254 49.935043 285.034254 47.143177 L 285.034254 35.365148 C 285.117961 34.897375 285.309994 34.636407 285.782691 34.508385 L 290.361941 34.508385 C 290.701692 34.636407 291.026671 34.897375 291.026671 35.365148 L 291.026671 47.143177 C 291.026671 49.935043 293.222742 52.131113 295.950596 52.131113 L 304.331117 52.131113 C 307.122982 52.131113 309.333825 49.935043 309.333825 47.143177 L 309.333825 3.497505 C 309.333825 0.76965 307.122982 -1.421496 304.331117 -1.421496 Z M 362.270944 46.414436 L 350.965612 3.369483 C 350.768655 2.571807 350.556926 1.370369 349.631228 0.301877 C 348.641519 -0.692755 347.37607 -0.9488 346.430677 -0.9488 L 329.004906 -0.9488 C 328.015197 -0.9488 327.069803 -0.623821 326.419845 -0.0920366 C 325.755115 0.38066 325.006678 1.178336 324.750634 2.360078 L 312.775648 46.345501 C 312.243865 48.477561 313.233573 50.732719 315.232687 51.594406 C 315.764471 51.870145 316.301179 51.934156 316.970833 51.934156 L 326.016083 51.934156 C 328.468198 51.934156 329.477602 50.40774 330.467311 47.871918 L 332.39749 42.691949 L 342.585091 42.691949 L 344.579281 47.871918 C 345.573914 50.40774 346.578394 51.998167 349.030509 51.998167 L 358.080684 51.998167 C 358.809425 51.998167 359.543089 51.806134 360.074873 51.466384 C 361.881954 50.535762 362.738717 48.408626 362.270944 46.414436 Z M 340.649989 27.309607 L 334.460615 27.309607 C 333.795885 27.309607 333.259177 26.728584 333.598928 26.05893 L 335.322302 21.528919 L 336.656685 18.067399 C 336.932425 17.210636 338.114167 17.210636 338.394831 18.067399 L 339.788302 21.528919 L 341.511676 26.05893 C 341.723404 26.728584 341.250707 27.309607 340.649989 27.309607 Z M 370.508671 11.621981 L 366.988064 11.621981 C 365.65368 11.621981 364.663972 10.612577 364.663972 9.425911 L 364.663972 1.030618 C 364.663972 -0.156048 365.65368 -1.229463 366.988064 -1.229463 L 370.508671 -1.229463 C 371.779043 -1.229463 372.832763 -0.156048 372.832763 1.030618 L 372.832763 9.425911 C 372.832763 10.612577 371.779043 11.621981 370.508671 11.621981 Z M 370.508671 11.621981 " stroke="#b2edef" stroke-width="1.081164" stroke-opacity="1" stroke-miterlimit="4"/></svg>